# xmcd
#
# Track frame offsets: 
#        150
#        9319
#        20794
#        32101
#        41926
#        51489
#        66414
#        77296
#        89517
#        98574
#        108324
#        121337
#        133891
#        146862
#        159700
#        170622
#        183091
#        196254
#        207808
#        220427
#        231690
#        245106
#        256966
#        268779
#        280878
#        290778
#        304075
#        317350
#
# Disc length: 4332 seconds
#
# Revision: 0
# Processed by: cddbd v1.5.2PL0 Copyright (c) Steve Scherf et al.
# Submitted via: ExactAudioCopy v0.99pb5
#
DISCID=b110ea1c
DTITLE=Professor Longhair - No Buts, No Maybes
DYEAR=2011
DGENRE=Blues
TTITLE0=Rockin' With The Fess
TTITLE1=In The Night
TTITLE2=Look What You're Doing To Me
TTITLE3=No Buts, No Maybes
TTITLE4=Looka No Hair
TTITLE5=Ball The Wall
TTITLE6=Tipitina
TTITLE7=Between The Night And The Day
TTITLE8=Misery
TTITLE9=Baby Let Me Hold Your Hand
TTITLE10=Mardi Gras In New Orleans
TTITLE11=Hey Now Baby
TTITLE12=Her Mind Has Gone
TTITLE13=She Walks Right In
TTITLE14=Oh Well
TTITLE15=East St Louis Baby
TTITLE16=Hadacol Bounce
TTITLE17=Gone So Long
TTITLE18=Curley Haired Baby
TTITLE19=Bald Head
TTITLE20=Been Foolin's Around
TTITLE21=Between The Night And Day
TTITLE22=Her Mind Is Gone
TTITLE23=Boogie Woogie
TTITLE24=Who's Been Foolin' You
TTITLE25=Hey Now Baby
TTITLE26=Walk Your Blues Away
TTITLE27=Baby Let Me Hold Your Hand
EXTD=
EXTT0=
EXTT1=
EXTT2=
EXTT3=
EXTT4=
EXTT5=
EXTT6=
EXTT7=
EXTT8=
EXTT9=
EXTT10=
EXTT11=
EXTT12=
EXTT13=
EXTT14=
EXTT15=
EXTT16=
EXTT17=
EXTT18=
EXTT19=
EXTT20=
EXTT21=
EXTT22=
EXTT23=
EXTT24=
EXTT25=
EXTT26=
EXTT27=
PLAYORDER=
